<svg xmlns="http://www.w3.org/2000/svg" width="113.372" height="120.034" viewBox="0 0 113.372 120.034">
  <g id="Ikonpac_-_Symbol_White" data-name="Ikonpac - Symbol White" transform="translate(-302.025 -290.391)">
    <g id="Group_4" data-name="Group 4" transform="translate(302.025 290.391)">
      <path id="Path_1" data-name="Path 1" d="M415.3,401.049a11.575,11.575,0,0,1-.653,5.151,67.871,67.871,0,0,1-12.613,25.435,80.666,80.666,0,0,1-31.117,24.01,68.649,68.649,0,0,1-19.671,5.488c-8.162.96-16.147.522-23.861-2.429a36.924,36.924,0,0,1-15.683-10.99,48.088,48.088,0,0,1-7.867-13.447,26.47,26.47,0,0,1-1.722-8.363,67.624,67.624,0,0,1,3.336-25.635A66.525,66.525,0,0,1,316.7,380.285a98.477,98.477,0,0,1,19.67-17.921c.219-.157.39-.441.854-.163-.984,1.609-2.608,2.58-3.962,3.718a76.878,76.878,0,0,0-9.253,9.445,81.509,81.509,0,0,0-11.954,18.663,71.841,71.841,0,0,0-5.656,16.5,37.8,37.8,0,0,0,.163,12.117,41.271,41.271,0,0,0,3.033,11.149,29.317,29.317,0,0,0,12.123,13.843,37.122,37.122,0,0,0,15.424,4.8c10.808,1.118,20.984-1.28,30.941-5.1A88.315,88.315,0,0,0,389.957,435.2c9.821-7.459,17.927-16.415,22.946-27.862C413.749,405.409,414.411,403.4,415.3,401.049Z" transform="translate(-302.025 -341.556)" fill="#fff"/>
      <g id="Group_3" data-name="Group 3" transform="translate(43.72)">
        <path id="Path_2" data-name="Path 2" d="M456.275,465.156c-.12-5.875,1.423-11,2.692-16.166,1.79-7.283,3.731-14.529,5.44-21.83.5-2.126.9-4.452-1.117-6.272a3.342,3.342,0,0,0-2.517-1.063c-.713.036-1.89-.125-1.783-.738.165-.951.033-2.264,1.661-2.645,3.252-.763,6.57-1.112,9.827-1.82,2.186-.475,4.4-.806,6.611-1.18.933-.158,1.683-.457,1.337,1.228-1.906,9.3-4.653,18.377-6.885,27.588-1.361,5.618-2.765,11.234-3.585,16.957-.213,1.486-.695,3.045-.125,4.641.51,1.426,1.07,1.733,2.175.683a34.148,34.148,0,0,0,5.641-7.686c.949-1.612,1.094-1.6,2.542-.409.5.411.459.7.262,1.188a36.6,36.6,0,0,1-7.5,11.847,15.848,15.848,0,0,1-6.913,4.463c-4.331,1.279-6.493-.734-7.429-4.55A14.546,14.546,0,0,1,456.275,465.156Z" transform="translate(-455.808 -378.117)" fill="#fff"/>
        <g id="Group_2" data-name="Group 2">
          <g id="Group_1" data-name="Group 1">
            <path id="Path_3" data-name="Path 3" d="M480.018,323.406a13.5,13.5,0,0,1-9.211-3.617,13.3,13.3,0,0,1-4.131-7.262,13.076,13.076,0,0,1,.678-7.755,9.839,9.839,0,0,1,5.56-5.551,10.051,10.051,0,0,1,2.911-.7,11.081,11.081,0,0,1,1.221-.054,2.094,2.094,0,0,1,.244.015.1.1,0,0,1,.1.121,1.043,1.043,0,0,1-.039.169c-.679,2.241-1.317,4.495-2.057,6.716a11.758,11.758,0,0,1-.563,1.468,5.878,5.878,0,0,1-.924,1.394,4.456,4.456,0,0,1-2.769,1.427,6.085,6.085,0,0,1-1.6.024c-.058-.007-.116-.01-.174-.02-.118-.021-.155-.06-.16-.19a7.288,7.288,0,0,1,.087-1.359,8.477,8.477,0,0,1,1.472-3.627A16.311,16.311,0,0,1,473,301.975c.306-.286.623-.562.935-.842.052-.047.107-.091.157-.14.142-.137.141-.194,0-.347-.085-.093-.134-.1-.239-.022-.856.664-1.765,1.26-2.578,1.979a9.788,9.788,0,0,0-3.209,5.4,9.926,9.926,0,0,0,.139,4.709,12.286,12.286,0,0,0,5.32,7.32,11.566,11.566,0,0,0,5.122,1.835,12.248,12.248,0,0,0,13.609-13.358,13.315,13.315,0,0,0-2.854-6.99,11.36,11.36,0,0,0-1.739-1.813c-.126-.1-.249-.211-.37-.32-.068-.061-.172-.113-.167-.213a.632.632,0,0,1,.178-.37.115.115,0,0,1,.1-.026,6.3,6.3,0,0,1,1.213.324,1.506,1.506,0,0,1,.374.255,15.126,15.126,0,0,1,3.408,4.263,12.232,12.232,0,0,1,1.3,4.076,14.545,14.545,0,0,1-.527,6.014,14.187,14.187,0,0,1-1.637,3.694A12,12,0,0,1,487,321.626,15.1,15.1,0,0,1,480.018,323.406Z" transform="translate(-463.04 -296.152)" fill="#fff"/>
            <path id="Path_4" data-name="Path 4" d="M473.942,313.216a1.781,1.781,0,0,0,.662-.21,11.929,11.929,0,0,0,4.365-3.839,9.682,9.682,0,0,0,1.66-5.189,11.219,11.219,0,0,0-1.461-5.862,12.651,12.651,0,0,0-5.145-5.092,11.614,11.614,0,0,0-4.725-1.392,12.269,12.269,0,0,0-8.565,2.593,11.764,11.764,0,0,0-4.6,7.623,12.464,12.464,0,0,0,1.585,8.615c.469.807,1.013,1.564,1.553,2.324.317.446.634.893.948,1.342.057.081.146.152.131.271a3.009,3.009,0,0,1-.943-.217,1.468,1.468,0,0,1-.28-.205,13.425,13.425,0,0,1-4.17-7.5,13.535,13.535,0,0,1,3.573-11.945,13.962,13.962,0,0,1,4.119-2.847,13.573,13.573,0,0,1,4.252-1.2,12.848,12.848,0,0,1,6.536.933,13.738,13.738,0,0,1,6.032,4.881,13.413,13.413,0,0,1,1.548,12.3,9.694,9.694,0,0,1-5.013,5.437,9.817,9.817,0,0,1-3.167.942,7.963,7.963,0,0,1-1.256.058c-.093,0-.186-.01-.279-.023a.1.1,0,0,1-.094-.121,1.578,1.578,0,0,1,.05-.2c.58-1.93,1.118-3.873,1.734-5.792.143-.444.286-.887.437-1.328a5.842,5.842,0,0,1,1.1-1.971,4.73,4.73,0,0,1,3.785-1.713,1.5,1.5,0,0,1,.414.052.6.6,0,0,1,.481.571,2.127,2.127,0,0,1-.031.557,10.018,10.018,0,0,1-1.678,4.107,14.573,14.573,0,0,1-2.5,2.721c-.22.191-.44.382-.649.585a1.992,1.992,0,0,0-.49.673C473.846,313.24,473.85,313.243,473.942,313.216Z" transform="translate(-454.718 -290.391)" fill="#fff"/>
            <path id="Path_5" data-name="Path 5" d="M569.968,369.939c-.092.026-.1.023-.076-.068Z" transform="translate(-536.907 -347.114)" fill="#fff"/>
          </g>
        </g>
      </g>
    </g>
  </g>
</svg>
