<svg xmlns="http://www.w3.org/2000/svg" width="268.83" height="36.858" viewBox="0 0 268.83 36.858">
  <g id="Ikonpac_for_Sustainability" data-name="Ikonpac for Sustainability" transform="translate(-867 -53)">
    <g id="Ikonpac_Logo_-_White" data-name="Ikonpac Logo - White" transform="translate(867 53)">
      <g id="Group_11" data-name="Group 11" transform="translate(0 0)">
        <g id="Group_7" data-name="Group 7" transform="translate(12.74 2.587)">
          <path id="Path_6" data-name="Path 6" d="M309.325,445.433v15.3l6.286-7.5h5.529v.265l-7.611,8.521,8.672,9.543v.341h-5.567l-7.308-8.445V471.9H304.7v-26.47Z" transform="translate(-304.705 -445.433)" fill="#fff"/>
          <path id="Path_7" data-name="Path 7" d="M385.959,480.732c0,5.378-3.673,9.732-9.732,9.732s-9.694-4.355-9.694-9.732c0-5.339,3.711-9.732,9.657-9.732A9.437,9.437,0,0,1,385.959,480.732Zm-14.807,0c0,2.841,1.7,5.491,5.074,5.491s5.074-2.651,5.074-5.491a5.272,5.272,0,0,0-5.074-5.529C372.894,475.2,371.152,477.929,371.152,480.732Z" transform="translate(-348.582 -463.577)" fill="#fff"/>
          <path id="Path_8" data-name="Path 8" d="M457.867,490.232v-9.77c0-2.84-1.553-5-4.506-5-2.84,0-4.771,2.386-4.771,5.226v9.543h-4.582V471.525h4.128l.3,2.537a8.418,8.418,0,0,1,6.135-2.8c4.393,0,7.914,3.294,7.914,9.164v9.808Z" transform="translate(-403.564 -463.762)" fill="#fff"/>
          <path id="Path_9" data-name="Path 9" d="M521.354,497.755v-26.47h4.317l.3,2.575a7.415,7.415,0,0,1,6.059-2.992c5.756,0,9.581,4.279,9.581,9.77,0,5.453-3.446,9.77-9.43,9.77-1.969,0-4.885-.606-6.21-2.651v10Zm15.64-17.117a5.3,5.3,0,0,0-10.6,0,5.3,5.3,0,1,0,10.6,0Z" transform="translate(-458.455 -463.484)" fill="#fff"/>
          <path id="Path_10" data-name="Path 10" d="M615.183,471.192h4.431v18.669h-4.355l-.227-2.726c-1.061,2.2-3.976,3.256-6.059,3.294-5.529.038-9.619-3.37-9.619-9.921,0-6.438,4.279-9.808,9.732-9.77a6.853,6.853,0,0,1,5.946,3.03Zm-11.209,9.315a5.348,5.348,0,0,0,5.529,5.68c7.271,0,7.271-11.322,0-11.322A5.316,5.316,0,0,0,603.974,480.507Z" transform="translate(-513.81 -463.391)" fill="#fff"/>
          <path id="Path_11" data-name="Path 11" d="M697.337,487.291a9.6,9.6,0,0,1-7.195,2.953c-5.415,0-9.922-3.256-9.922-9.884s4.506-9.884,9.922-9.884a8.866,8.866,0,0,1,6.741,2.765l-2.916,3.067a5.67,5.67,0,0,0-3.749-1.477,5.252,5.252,0,0,0-5.377,5.529,5.086,5.086,0,0,0,5.3,5.453,5.614,5.614,0,0,0,4.09-1.552Z" transform="translate(-571.198 -463.206)" fill="#fff"/>
        </g>
        <g id="Group_10" data-name="Group 10" transform="translate(0)">
          <path id="Path_12" data-name="Path 12" d="M261.294,489.546a18.531,18.531,0,0,1,.825-4.953c.548-2.231,1.143-4.451,1.667-6.688a1.783,1.783,0,0,0-.342-1.922,1.023,1.023,0,0,0-.771-.326c-.218.011-.579-.039-.546-.226.051-.291.01-.694.509-.811,1-.234,2.013-.341,3.011-.557.67-.145,1.349-.247,2.025-.361.286-.048.516-.14.41.376-.584,2.848-1.426,5.63-2.109,8.452-.417,1.721-.847,3.441-1.1,5.194a2.848,2.848,0,0,0-.038,1.422c.156.437.327.531.666.209A10.464,10.464,0,0,0,267.229,487c.291-.494.335-.489.779-.125.153.126.14.213.08.364a11.215,11.215,0,0,1-2.3,3.629,4.855,4.855,0,0,1-2.118,1.367c-1.327.392-1.989-.225-2.276-1.394A4.459,4.459,0,0,1,261.294,489.546Z" transform="translate(-261.151 -462.881)" fill="#fff"/>
          <g id="Group_9" data-name="Group 9">
            <g id="Group_8" data-name="Group 8">
              <path id="Path_13" data-name="Path 13" d="M268.525,446.6A4.134,4.134,0,0,1,265.7,445.5a4.073,4.073,0,0,1-1.266-2.225,4.006,4.006,0,0,1,.208-2.376,3.015,3.015,0,0,1,1.7-1.7,3.08,3.08,0,0,1,.892-.215,3.35,3.35,0,0,1,.374-.017.58.58,0,0,1,.075,0,.031.031,0,0,1,.029.037.344.344,0,0,1-.012.052c-.208.687-.4,1.377-.63,2.058a3.614,3.614,0,0,1-.172.45,1.8,1.8,0,0,1-.283.427,1.364,1.364,0,0,1-.848.437,1.855,1.855,0,0,1-.491.007c-.018,0-.035,0-.053-.006-.036-.007-.047-.019-.049-.058a2.218,2.218,0,0,1,.027-.416,2.6,2.6,0,0,1,.451-1.111,5.01,5.01,0,0,1,.719-.805c.094-.088.191-.172.287-.258.016-.014.033-.028.048-.043.044-.042.043-.059,0-.107-.026-.028-.041-.032-.073-.007-.262.2-.541.386-.79.606a3,3,0,0,0-.983,1.655,3.042,3.042,0,0,0,.043,1.443,3.765,3.765,0,0,0,1.63,2.242,3.551,3.551,0,0,0,1.569.562,3.752,3.752,0,0,0,4.169-4.092,4.079,4.079,0,0,0-.874-2.142,3.493,3.493,0,0,0-.532-.555q-.058-.047-.114-.1c-.021-.019-.053-.035-.051-.065a.192.192,0,0,1,.054-.113.035.035,0,0,1,.029-.008,1.935,1.935,0,0,1,.372.1.459.459,0,0,1,.114.078,4.627,4.627,0,0,1,1.044,1.306,3.747,3.747,0,0,1,.4,1.249,4.455,4.455,0,0,1-.161,1.842,4.345,4.345,0,0,1-.5,1.132,3.675,3.675,0,0,1-1.386,1.293A4.621,4.621,0,0,1,268.525,446.6Z" transform="translate(-263.323 -438.254)" fill="#fff"/>
              <path id="Path_14" data-name="Path 14" d="M266.712,443.516a.548.548,0,0,0,.2-.064,3.654,3.654,0,0,0,1.337-1.176,2.966,2.966,0,0,0,.509-1.59,3.438,3.438,0,0,0-.448-1.8,3.876,3.876,0,0,0-1.576-1.56,3.561,3.561,0,0,0-1.448-.426,3.758,3.758,0,0,0-2.624.794,3.6,3.6,0,0,0-1.408,2.335,3.819,3.819,0,0,0,.486,2.639c.143.247.31.479.476.712.1.136.194.273.29.411.017.025.045.047.04.083a.931.931,0,0,1-.289-.066.454.454,0,0,1-.086-.063,4.113,4.113,0,0,1-1.278-2.3,4.147,4.147,0,0,1,1.095-3.66,4.279,4.279,0,0,1,1.262-.872,4.158,4.158,0,0,1,1.3-.369,3.934,3.934,0,0,1,2,.286,4.21,4.21,0,0,1,1.848,1.5,4.11,4.11,0,0,1,.474,3.77,2.971,2.971,0,0,1-1.536,1.666,3.014,3.014,0,0,1-.971.289,2.424,2.424,0,0,1-.385.018.838.838,0,0,1-.085-.007.03.03,0,0,1-.029-.037.466.466,0,0,1,.015-.062c.178-.591.342-1.186.531-1.774.044-.136.088-.272.134-.407a1.791,1.791,0,0,1,.337-.6,1.449,1.449,0,0,1,1.159-.525.45.45,0,0,1,.127.016.184.184,0,0,1,.147.175.647.647,0,0,1-.009.17,3.068,3.068,0,0,1-.514,1.258,4.459,4.459,0,0,1-.766.834c-.067.059-.135.117-.2.179a.613.613,0,0,0-.15.206C266.683,443.523,266.684,443.524,266.712,443.516Z" transform="translate(-260.823 -436.523)" fill="#fff"/>
              <path id="Path_15" data-name="Path 15" d="M295.645,460.558c-.028.008-.029.007-.023-.021Z" transform="translate(-285.517 -453.565)" fill="#fff"/>
            </g>
          </g>
        </g>
      </g>
    </g>
    <text id="for_Sustainability" data-name="for Sustainability" transform="translate(1013.83 76.6)" fill="#fff" font-size="15" font-family="NexaLight, Nexa Light"><tspan x="0" y="0">for </tspan><tspan y="0" font-family="NexaBold, Nexa Bold">Sustainability</tspan></text>
  </g>
</svg>
