<svg xmlns="http://www.w3.org/2000/svg" width="82.771" height="82.098" viewBox="0 0 82.771 82.098">
  <g id="Scissor" transform="translate(80.039 53.448) rotate(150)">
    <path id="Path_16" data-name="Path 16" d="M19.634,9.864a9.7,9.7,0,0,1-9.769,9.769A9.933,9.933,0,0,1,0,9.769,9.7,9.7,0,0,1,9.769,0a9.933,9.933,0,0,1,9.864,9.864Z" transform="translate(0 0)" fill="none" stroke="#000" stroke-linecap="round" stroke-linejoin="round" stroke-width="4"/>
    <path id="Path_17" data-name="Path 17" d="M19.634,9.864a9.7,9.7,0,0,1-9.769,9.769A9.933,9.933,0,0,1,0,9.769,9.7,9.7,0,0,1,9.769,0,9.933,9.933,0,0,1,19.634,9.864Z" transform="translate(0.19 39.038)" fill="none" stroke="#000" stroke-linecap="round" stroke-linejoin="round" stroke-width="4"/>
    <path id="Path_18" data-name="Path 18" d="M38.686,0,0,38.684" transform="translate(16.907 3.476)" fill="none" stroke="#000" stroke-linecap="round" stroke-linejoin="round" stroke-width="4"/>
    <path id="Path_19" data-name="Path 19" d="M0,0,18.183,18.15" transform="translate(37.658 37.481)" fill="none" stroke="#000" stroke-linecap="round" stroke-linejoin="round" stroke-width="4"/>
    <path id="Path_20" data-name="Path 20" d="M0,0,12.758,12.758" transform="translate(16.831 17.372)" fill="none" stroke="#000" stroke-linecap="round" stroke-linejoin="round" stroke-width="4"/>
  </g>
</svg>
